<svg xmlns="http://www.w3.org/2000/svg" width="120px" height="46px" viewBox="0 0 120 46">
<g fill="#FFFFFF">
	<path d="M119.23,0.72c-0.35-0.35-0.81-0.55-1.3-0.57h-0.14c-0.41,0.02-0.8,0.16-1.12,0.41
		c-0.32,0.25-0.55,0.59-0.67,0.98h-12.26c-1-0.02-1.98,0.25-2.83,0.78c-1.22,0.75-2.11,2.01-2.39,3.42c-0.12,0.56-0.11,1.13-0.1,1.7
		c0.03,1.02,0.38,2,0.99,2.82c3.76,4.9,7.51,9.81,11.26,14.72c-2.83,0-5.65,0-8.48,0c-0.12-0.4-0.36-0.75-0.68-1
		c-0.29-0.22-0.63-0.35-0.98-0.39c-0.36-0.03-0.72,0.03-1.04,0.19c-0.32,0.16-0.59,0.41-0.78,0.71c-0.19,0.31-0.29,0.66-0.29,1.02
		s0.1,0.71,0.29,1.02c0.19,0.31,0.46,0.55,0.78,0.71c0.32,0.16,0.68,0.23,1.04,0.19c0.36-0.04,0.7-0.17,0.98-0.39
		c0.32-0.25,0.56-0.59,0.68-0.98c3.19,0,6.38,0,9.57,0c0.09,0,0.17-0.02,0.24-0.07c0.07-0.05,0.13-0.11,0.17-0.19
		c0.04-0.08,0.06-0.16,0.05-0.25c-0.01-0.09-0.04-0.17-0.09-0.24L100.48,9.91c-0.63-0.79-0.97-1.78-0.96-2.79
		c0-1.01,0.34-1.99,0.97-2.79c0.72-0.92,1.82-1.54,2.98-1.67c0.33-0.04,0.65-0.03,0.98-0.03c3.86,0,7.71,0,11.57,0
		c0.12,0.39,0.36,0.74,0.68,0.99c0.37,0.29,0.84,0.43,1.31,0.39c0.47-0.03,0.91-0.24,1.24-0.58c0.33-0.33,0.52-0.78,0.55-1.24V2.02
		C119.78,1.53,119.58,1.07,119.23,0.72z"/>
	<path d="M107.32,9.35c2.38,0,4.77,0,7.15,0c0.12,0.4,0.36,0.76,0.7,1.01c0.29,0.22,0.63,0.35,0.98,0.38
		c0.36,0.03,0.72-0.04,1.04-0.2c0.32-0.16,0.59-0.41,0.78-0.71c0.19-0.31,0.29-0.66,0.29-1.02s-0.1-0.71-0.29-1.02
		c-0.19-0.31-0.46-0.55-0.78-0.71c-0.32-0.16-0.68-0.23-1.04-0.2c-0.36,0.03-0.7,0.16-0.98,0.38c-0.33,0.25-0.57,0.6-0.69,1
		c-2.72,0-5.43,0-8.15,0c-0.13-0.01-0.27,0-0.38,0.09c-0.21,0.15-0.25,0.47-0.08,0.67c3.85,5,7.7,10,11.55,14.99
		c0.26,0.35,0.55,0.68,0.75,1.07c0.35,0.64,0.54,1.36,0.55,2.09c0.01,0.73-0.16,1.45-0.49,2.1c-0.33,0.65-0.82,1.21-1.42,1.63
		c-0.6,0.42-1.29,0.68-2.01,0.77c-0.33,0.04-0.65,0.03-0.98,0.03c-3.86,0-7.73,0-11.6,0c-0.14-0.48-0.46-0.89-0.9-1.14
		c-0.4-0.23-0.88-0.31-1.33-0.22c-0.45,0.09-0.86,0.34-1.15,0.71c-0.28,0.37-0.43,0.82-0.4,1.29c0.02,0.46,0.21,0.9,0.54,1.24
		c0.33,0.35,0.8,0.56,1.28,0.59h0.18c0.4-0.02,0.79-0.16,1.12-0.41c0.32-0.25,0.55-0.59,0.67-0.98h12.29
		c1.38,0.01,2.71-0.52,3.7-1.48c0.99-0.96,1.57-2.28,1.59-3.66v-0.68c-0.02-1.04-0.38-2.05-1.01-2.89
		C114.97,19.17,111.14,14.26,107.32,9.35z"/>
	<path d="M73.13,14.62c0.2,0.15,0.44,0.26,0.68,0.32c0.25,0.06,0.5,0.07,0.75,0.03c0.25-0.04,0.49-0.13,0.71-0.26
		c0.22-0.13,0.4-0.31,0.55-0.51c0.15-0.21,0.26-0.44,0.32-0.68c0.11-0.47,0.04-0.97-0.2-1.39c-0.24-0.42-0.63-0.74-1.09-0.89
		c0-2.86,0-5.73,0-8.59c6.4,0,12.8,0,19.19,0c0,1.88,0,3.75,0,5.63c-4.35,0-8.7,0-13.05,0c0,1.82,0,3.63,0,5.44
		c3.71,0,7.41,0,11.12,0c0.09,0.27,0.25,0.51,0.44,0.71c0.33,0.34,0.77,0.55,1.25,0.58c0.37,0.02,0.73-0.06,1.06-0.23
		c0.32-0.18,0.59-0.44,0.76-0.77c0.18-0.32,0.26-0.69,0.23-1.06c-0.02-0.37-0.15-0.72-0.37-1.02c-0.22-0.3-0.52-0.52-0.86-0.66
		c-0.34-0.13-0.72-0.16-1.08-0.09c-0.36,0.07-0.69,0.25-0.96,0.51c-0.26,0.26-0.45,0.58-0.54,0.94c-3.33,0-6.66,0-9.98,0
		c0-1.09,0-2.18,0-3.27c4.35,0,8.7,0,13.06,0c0-2.6,0-5.2,0-7.8H73.76c0,3.22,0,6.44,0,9.65c-0.66,0.17-1.21,0.73-1.37,1.4
		c-0.12,0.5-0.04,1.02,0.23,1.46C72.75,14.28,72.92,14.47,73.13,14.62z"/>
	<path d="M95.55,20.07c-0.2-0.32-0.49-0.57-0.83-0.72c-0.34-0.15-0.72-0.21-1.09-0.15
		c-0.37,0.06-0.72,0.22-0.99,0.48c-0.28,0.25-0.48,0.58-0.57,0.95c-3.69,0-7.38,0-11.07,0c0,1.82,0,3.63,0,5.44
		c4.35,0,8.7,0,13.05,0c0,1.88,0,3.75,0,5.63H74.85c0-2.92,0-5.83,0-8.75c0.7-0.22,1.25-0.87,1.33-1.61
		c0.05-0.38-0.02-0.77-0.19-1.11c-0.17-0.34-0.44-0.63-0.78-0.81c-0.33-0.19-0.72-0.27-1.1-0.24c-0.38,0.03-0.75,0.17-1.04,0.41
		c-0.36,0.28-0.6,0.68-0.69,1.13c-0.1,0.48-0.01,0.98,0.25,1.4c0.26,0.42,0.66,0.72,1.14,0.85c0,3.27,0,6.54,0,9.81h21.37
		c0-2.6,0-5.2,0-7.8c-4.35,0-8.7,0-13.06,0c0-1.09,0-2.18,0-3.27c3.34,0,6.68,0,10.03,0c0.21,0.66,0.8,1.19,1.49,1.3
		c0.37,0.07,0.75,0.03,1.1-0.12c0.35-0.15,0.64-0.39,0.85-0.7s0.32-0.68,0.33-1.06C95.86,20.76,95.76,20.39,95.55,20.07z"/>
	<path d="M25.15,10.08c0.63,0.15,1.34-0.05,1.8-0.52c0.32-0.32,0.52-0.75,0.56-1.21c0.04-0.45-0.09-0.9-0.34-1.27
		c-0.26-0.37-0.64-0.64-1.07-0.76c0-1.23,0-2.47,0-3.7c5.49,0,10.98,0,16.46,0c0.14,0.48,0.46,0.89,0.9,1.13
		c0.41,0.23,0.88,0.31,1.34,0.21c0.46-0.09,0.87-0.35,1.15-0.73c0.28-0.37,0.42-0.84,0.38-1.31c-0.03-0.47-0.24-0.91-0.57-1.24
		c-0.33-0.33-0.78-0.52-1.24-0.55h-0.18c-0.41,0.02-0.8,0.16-1.12,0.41c-0.32,0.25-0.55,0.59-0.67,0.98H25.01c0,1.6,0,3.2,0,4.8
		c-0.45,0.14-0.83,0.44-1.07,0.84c-0.24,0.4-0.33,0.88-0.25,1.34C23.81,9.28,24.41,9.92,25.15,10.08z"/>
	<path d="M40.27,26.07V8.26h-8.81c0,5.93,0,11.87,0,17.8H40.27z M32.55,9.35c2.21,0,4.42,0,6.63,0v8.77
		c0,2.29,0,4.58,0,6.87c-2.21,0-4.42,0-6.63,0V9.35z"/>
	<path d="M44.3,34.18h0.18c0.47-0.02,0.92-0.2,1.26-0.53c0.34-0.32,0.55-0.76,0.6-1.23
		c0.04-0.47-0.09-0.94-0.36-1.32c-0.28-0.38-0.68-0.65-1.14-0.75c-0.48-0.11-0.98-0.03-1.4,0.22c-0.42,0.25-0.73,0.65-0.87,1.12
		c-5.49,0-10.97,0-16.46,0c0-1.23,0-2.47,0-3.7c0.42-0.12,0.79-0.37,1.05-0.72c0.29-0.39,0.42-0.88,0.36-1.36
		c-0.05-0.48-0.29-0.93-0.66-1.25c-0.37-0.32-0.84-0.48-1.33-0.47c-0.49,0.02-0.95,0.22-1.29,0.56c-0.33,0.32-0.52,0.75-0.56,1.21
		c-0.03,0.44,0.08,0.87,0.32,1.24c0.24,0.36,0.6,0.63,1.02,0.77c0,1.6,0,3.2,0,4.8h17.55c0.14,0.49,0.48,0.91,0.93,1.16
		C43.73,34.08,44.01,34.16,44.3,34.18z"/>
	<path d="M69.69,28.92c0.09-0.49,0.06-0.99,0.07-1.49V6.19c0-0.61-0.12-1.22-0.36-1.78
		c-0.23-0.56-0.58-1.08-1.01-1.51c-0.43-0.43-0.94-0.77-1.51-1c-0.56-0.23-1.17-0.35-1.78-0.35c-4.31,0-8.62,0-12.93,0
		c-0.1-0.32-0.27-0.62-0.52-0.85c-0.33-0.32-0.77-0.51-1.23-0.54h-0.18c-0.47,0.02-0.92,0.2-1.26,0.53C48.65,1,48.44,1.44,48.4,1.91
		c-0.04,0.47,0.09,0.94,0.36,1.32c0.28,0.38,0.68,0.65,1.14,0.75c0.48,0.11,0.98,0.03,1.4-0.22c0.42-0.25,0.73-0.65,0.87-1.12
		c4.32,0,8.64,0,12.96,0c0.48,0,0.95,0.1,1.38,0.29c0.44,0.19,0.83,0.46,1.16,0.8c0.33,0.34,0.59,0.75,0.76,1.19
		c0.17,0.44,0.25,0.92,0.24,1.4v21.65c0.01,0.26-0.01,0.51-0.05,0.77c-0.08,0.48-0.26,0.94-0.53,1.35
		c-0.27,0.41-0.61,0.76-1.02,1.03c-0.62,0.41-1.36,0.62-2.1,0.59h-12.8c-0.2-0.68-0.79-1.23-1.49-1.35c-0.44-0.08-0.9-0.01-1.29,0.2
		c-0.39,0.22-0.7,0.56-0.86,0.98c-0.17,0.42-0.18,0.88-0.04,1.31c0.14,0.43,0.42,0.79,0.8,1.04c0.28,0.18,0.6,0.28,0.93,0.3h0.18
		c0.11-0.01,0.22-0.02,0.33-0.04c0.68-0.14,1.26-0.68,1.45-1.35h12.88c1.11,0.02,2.18-0.37,3.03-1.08
		C68.94,31,69.51,30.01,69.69,28.92z"/>
	<path d="M54.85,8.26v17.8h8.81c0-5.93,0-11.87,0-17.8H54.85z M62.57,24.98c-2.21,0-4.42,0-6.63,0
		c0-5.21,0-10.42,0-15.63h0c2.21,0,4.42,0,6.63,0V24.98z"/>
	<path d="M4.01,31.7c-0.09-0.31-0.25-0.59-0.48-0.81c-0.22-0.23-0.5-0.4-0.81-0.49c-0.3-0.09-0.63-0.11-0.94-0.05
		c-0.31,0.06-0.61,0.2-0.85,0.4c-0.41,0.34-0.67,0.85-0.7,1.38v0.18c0.02,0.49,0.22,0.95,0.57,1.3c0.33,0.34,0.79,0.54,1.25,0.57
		h0.18c0.41-0.02,0.8-0.16,1.12-0.41c0.32-0.25,0.55-0.59,0.67-0.98H21.6c0-2.6,0-5.2,0-7.8c-3.58,0-7.16,0-10.74,0
		c0-5.21,0-10.43,0-15.64c3.58,0,7.16,0,10.74,0c0-2.6,0-5.2,0-7.8H4.01C3.92,1.22,3.74,0.93,3.5,0.7C3.17,0.37,2.72,0.18,2.27,0.15
		H2.09C1.6,0.17,1.14,0.38,0.8,0.72c-0.34,0.35-0.55,0.81-0.56,1.3v0.14c0.01,0.35,0.12,0.69,0.31,0.99C0.74,3.44,1,3.67,1.32,3.83
		s0.67,0.22,1.02,0.19C2.69,3.98,3.02,3.85,3.3,3.64c0.34-0.25,0.59-0.61,0.71-1.01c5.5,0,11,0,16.5,0c0,1.88,0,3.75,0,5.63H9.77
		v17.81h10.74c0,1.88,0,3.75,0,5.63C15.01,31.7,9.51,31.7,4.01,31.7z"/>
	<path d="M33.06,40.84c0.26-0.15,0.56-0.22,0.89-0.22c0.54,0,0.99,0.21,1.35,0.63l0.8-0.74
		c-0.26-0.31-0.57-0.54-0.95-0.71c-0.37-0.16-0.79-0.25-1.26-0.25c-0.55,0-1.05,0.12-1.49,0.36c-0.44,0.24-0.79,0.57-1.04,0.99
		c-0.25,0.42-0.38,0.9-0.38,1.43c0,0.53,0.13,1.01,0.38,1.44c0.26,0.42,0.6,0.75,1.04,0.99c0.44,0.24,0.94,0.35,1.49,0.35
		c0.46,0,0.89-0.08,1.26-0.25c0.38-0.16,0.69-0.4,0.95-0.71l-0.8-0.74c-0.36,0.42-0.81,0.64-1.35,0.64c-0.33,0-0.63-0.07-0.89-0.22
		c-0.26-0.15-0.46-0.35-0.61-0.61c-0.14-0.26-0.21-0.56-0.21-0.89c0-0.33,0.07-0.63,0.21-0.89C32.6,41.19,32.8,40.99,33.06,40.84z"
		/>
	<path d="M27.35,42.14c-0.26-0.1-0.59-0.19-1-0.29c-0.39-0.09-0.69-0.17-0.88-0.26c-0.19-0.09-0.28-0.23-0.28-0.41
		c0-0.18,0.08-0.33,0.25-0.45c0.17-0.11,0.43-0.17,0.77-0.17c0.5,0,0.99,0.14,1.49,0.42l0.38-0.94c-0.25-0.15-0.53-0.27-0.86-0.35
		c-0.33-0.08-0.66-0.12-1-0.12c-0.49,0-0.91,0.07-1.25,0.22c-0.34,0.15-0.59,0.35-0.76,0.61c-0.17,0.25-0.25,0.53-0.25,0.84
		c0,0.36,0.09,0.65,0.28,0.86c0.19,0.22,0.41,0.37,0.67,0.47c0.26,0.1,0.6,0.19,1,0.29c0.27,0.06,0.47,0.12,0.63,0.17
		c0.16,0.05,0.29,0.12,0.38,0.21c0.1,0.08,0.15,0.19,0.15,0.32c0,0.17-0.08,0.31-0.25,0.42c-0.17,0.1-0.43,0.15-0.78,0.15
		c-0.32,0-0.63-0.05-0.95-0.15c-0.32-0.1-0.59-0.24-0.82-0.41l-0.42,0.94c0.24,0.18,0.56,0.34,0.95,0.45
		c0.4,0.11,0.81,0.17,1.23,0.17c0.49,0,0.91-0.07,1.25-0.22c0.34-0.15,0.6-0.35,0.77-0.6c0.17-0.26,0.26-0.54,0.26-0.85
		c0-0.36-0.09-0.64-0.28-0.85C27.83,42.39,27.61,42.24,27.35,42.14z"/>
	<polygon points="20.35,42.79 22.84,42.79 22.84,41.82 20.35,41.82 20.35,40.65 23.17,40.65 23.17,39.65 
		19.12,39.65 19.12,45.03 23.27,45.03 23.27,44.03 20.35,44.03 	"/>
	<path d="M2.56,40.84c0.26-0.15,0.56-0.22,0.89-0.22c0.54,0,0.99,0.21,1.35,0.63l0.8-0.74
		c-0.26-0.31-0.57-0.54-0.95-0.71c-0.37-0.16-0.79-0.25-1.26-0.25c-0.55,0-1.05,0.12-1.49,0.36c-0.44,0.24-0.79,0.57-1.04,0.99
		c-0.25,0.42-0.38,0.9-0.38,1.43c0,0.53,0.13,1.01,0.38,1.44c0.26,0.42,0.6,0.75,1.04,0.99c0.44,0.24,0.94,0.35,1.49,0.35
		c0.46,0,0.89-0.08,1.26-0.25c0.38-0.16,0.69-0.4,0.95-0.71l-0.8-0.74c-0.36,0.42-0.81,0.64-1.35,0.64c-0.33,0-0.63-0.07-0.89-0.22
		C2.3,43.7,2.1,43.49,1.95,43.23c-0.14-0.26-0.21-0.56-0.21-0.89c0-0.33,0.07-0.63,0.21-0.89C2.1,41.19,2.3,40.99,2.56,40.84z"/>
	<path d="M16.77,39.99c-0.44-0.23-0.96-0.34-1.54-0.34h-2.44v5.38h2.44c0.58,0,1.1-0.11,1.54-0.33
		c0.45-0.23,0.8-0.54,1.04-0.95c0.25-0.4,0.38-0.88,0.38-1.41c0-0.54-0.13-1.01-0.38-1.41C17.56,40.52,17.21,40.21,16.77,39.99z
		 M16.44,43.56c-0.32,0.3-0.74,0.45-1.28,0.45h-1.13v-3.33h1.13c0.54,0,0.96,0.15,1.28,0.45c0.32,0.3,0.48,0.7,0.48,1.21
		S16.77,43.26,16.44,43.56z"/>
	<polygon points="117.97,42.92 115.3,39.65 114.28,39.65 114.28,45.03 115.5,45.03 115.5,41.77 118.18,45.03 
		119.2,45.03 119.2,39.65 117.97,39.65 	"/>
	<path d="M10.42,39.92c-0.44-0.24-0.95-0.36-1.5-0.36c-0.56,0-1.06,0.12-1.51,0.36c-0.44,0.24-0.79,0.57-1.05,1
		c-0.25,0.42-0.38,0.89-0.38,1.42s0.13,1,0.38,1.43c0.26,0.42,0.61,0.75,1.05,0.99c0.45,0.24,0.95,0.36,1.51,0.36
		c0.56,0,1.06-0.12,1.5-0.36c0.44-0.24,0.79-0.57,1.05-0.99c0.26-0.42,0.38-0.9,0.38-1.43s-0.13-1-0.38-1.42
		C11.22,40.5,10.87,40.16,10.42,39.92z M10.38,43.23c-0.14,0.26-0.34,0.47-0.6,0.61c-0.26,0.14-0.54,0.22-0.86,0.22
		s-0.6-0.07-0.86-0.22c-0.26-0.15-0.46-0.35-0.61-0.61c-0.14-0.26-0.21-0.56-0.21-0.89c0-0.33,0.07-0.63,0.21-0.89
		c0.15-0.26,0.35-0.46,0.61-0.61c0.26-0.15,0.54-0.22,0.86-0.22s0.6,0.07,0.86,0.22c0.26,0.14,0.45,0.35,0.6,0.61
		c0.15,0.26,0.22,0.56,0.22,0.89C10.6,42.67,10.52,42.97,10.38,43.23z"/>
	<path d="M104.05,42.14c-0.26-0.1-0.59-0.19-1-0.29c-0.39-0.09-0.69-0.17-0.88-0.26c-0.19-0.09-0.28-0.23-0.28-0.41
		c0-0.18,0.08-0.33,0.25-0.45c0.17-0.11,0.43-0.17,0.77-0.17c0.5,0,0.99,0.14,1.49,0.42l0.38-0.94c-0.24-0.15-0.53-0.27-0.86-0.35
		c-0.33-0.08-0.66-0.12-1-0.12c-0.49,0-0.91,0.07-1.25,0.22c-0.34,0.15-0.59,0.35-0.76,0.61c-0.17,0.25-0.25,0.53-0.25,0.84
		c0,0.36,0.09,0.65,0.28,0.86c0.19,0.22,0.41,0.37,0.67,0.47c0.26,0.1,0.59,0.19,1,0.29c0.27,0.06,0.48,0.12,0.63,0.17
		c0.16,0.05,0.29,0.12,0.38,0.21c0.1,0.08,0.15,0.19,0.15,0.32c0,0.17-0.08,0.31-0.25,0.42c-0.17,0.1-0.43,0.15-0.78,0.15
		c-0.32,0-0.63-0.05-0.95-0.15c-0.32-0.1-0.59-0.24-0.82-0.41l-0.42,0.94c0.24,0.18,0.56,0.34,0.95,0.45
		c0.4,0.11,0.81,0.17,1.23,0.17c0.49,0,0.91-0.07,1.25-0.22c0.34-0.15,0.6-0.35,0.77-0.6c0.17-0.26,0.26-0.54,0.26-0.85
		c0-0.36-0.09-0.64-0.28-0.85C104.54,42.39,104.31,42.24,104.05,42.14z"/>
	<path d="M40.92,39.92c-0.44-0.24-0.94-0.36-1.5-0.36c-0.56,0-1.06,0.12-1.51,0.36c-0.44,0.24-0.79,0.57-1.05,1
		c-0.25,0.42-0.38,0.89-0.38,1.42s0.13,1,0.38,1.43c0.26,0.42,0.61,0.75,1.05,0.99c0.45,0.24,0.95,0.36,1.51,0.36
		c0.56,0,1.06-0.12,1.5-0.36c0.44-0.24,0.79-0.57,1.05-0.99c0.26-0.42,0.38-0.9,0.38-1.43s-0.13-1-0.38-1.42
		C41.72,40.5,41.37,40.16,40.92,39.92z M40.88,43.23c-0.14,0.26-0.34,0.47-0.6,0.61c-0.26,0.14-0.54,0.22-0.86,0.22
		s-0.6-0.07-0.86-0.22c-0.26-0.15-0.46-0.35-0.61-0.61c-0.14-0.26-0.21-0.56-0.21-0.89c0-0.33,0.07-0.63,0.21-0.89
		c0.15-0.26,0.35-0.46,0.61-0.61c0.26-0.15,0.54-0.22,0.86-0.22s0.6,0.07,0.86,0.22c0.26,0.14,0.45,0.35,0.6,0.61
		c0.15,0.26,0.22,0.56,0.22,0.89C41.1,42.67,41.02,42.97,40.88,43.23z"/>
	<rect x="74.32" y="39.65" width="1.24" height="5.38"/>
	<path d="M70.45,40.84c0.26-0.15,0.56-0.22,0.89-0.22c0.54,0,0.99,0.21,1.35,0.63l0.8-0.74
		c-0.26-0.31-0.57-0.54-0.95-0.71c-0.37-0.16-0.79-0.25-1.26-0.25c-0.55,0-1.05,0.12-1.49,0.36c-0.44,0.24-0.79,0.57-1.04,0.99
		c-0.25,0.42-0.38,0.9-0.38,1.43c0,0.53,0.13,1.01,0.38,1.44c0.26,0.42,0.6,0.75,1.04,0.99c0.44,0.24,0.94,0.35,1.49,0.35
		c0.46,0,0.89-0.08,1.26-0.25c0.38-0.16,0.69-0.4,0.95-0.71l-0.8-0.74c-0.36,0.42-0.81,0.64-1.35,0.64c-0.33,0-0.63-0.07-0.89-0.22
		c-0.26-0.15-0.46-0.35-0.61-0.61c-0.14-0.26-0.21-0.56-0.21-0.89c0-0.33,0.07-0.63,0.21-0.89C69.98,41.19,70.19,40.99,70.45,40.84z
		"/>
	<polygon points="83.94,39.65 82.7,39.65 82.7,45.03 86.63,45.03 86.63,44.02 83.94,44.02 	"/>
	<path d="M93.47,39.99c-0.44-0.23-0.96-0.34-1.54-0.34h-2.44v5.38h2.44c0.58,0,1.1-0.11,1.54-0.33
		c0.45-0.23,0.8-0.54,1.04-0.95c0.25-0.4,0.38-0.88,0.38-1.41c0-0.54-0.13-1.01-0.38-1.41C94.27,40.52,93.92,40.21,93.47,39.99z
		 M93.15,43.56c-0.32,0.3-0.74,0.45-1.28,0.45h-1.13v-3.33h1.13c0.54,0,0.96,0.15,1.28,0.45c0.32,0.3,0.48,0.7,0.48,1.21
		S93.47,43.26,93.15,43.56z"/>
	<polygon points="97.06,42.79 99.55,42.79 99.55,41.82 97.06,41.82 97.06,40.65 99.88,40.65 99.88,39.65 
		95.82,39.65 95.82,45.03 99.98,45.03 99.98,44.03 97.06,44.03 	"/>
	<path d="M78.52,39.65l-2.39,5.38h1.27l0.48-1.15h2.49l0.48,1.15h1.3l-2.4-5.38H78.52z M78.27,42.93l0.85-2.06
		l0.85,2.06H78.27z"/>
	<polygon points="55.62,39.65 53.64,43 51.63,39.65 50.61,39.65 50.61,45.03 51.77,45.03 51.77,41.87 53.34,44.46 
		53.9,44.46 55.48,41.8 55.49,45.03 56.65,45.03 56.64,39.65 	"/>
	<polygon points="59.16,42.79 61.65,42.79 61.65,41.82 59.16,41.82 59.16,40.65 61.98,40.65 61.98,39.65 
		57.92,39.65 57.92,45.03 62.08,45.03 62.08,44.03 59.16,44.03 	"/>
	<polygon points="48.3,39.65 46.32,43 44.31,39.65 43.29,39.65 43.29,45.03 44.45,45.03 44.45,41.87 46.02,44.46 
		46.58,44.46 48.16,41.8 48.17,45.03 49.33,45.03 49.32,39.65 	"/>
	<path d="M67.42,42.64c0.19-0.29,0.29-0.64,0.29-1.04c0-0.4-0.09-0.74-0.28-1.04c-0.19-0.29-0.46-0.52-0.81-0.68
		c-0.35-0.16-0.76-0.24-1.23-0.24h-2.32v5.38h1.24v-1.5h1.08h0.06l1.03,1.5h1.33l-1.2-1.73C66.96,43.15,67.24,42.93,67.42,42.64z
		 M66.17,42.3c-0.19,0.16-0.48,0.25-0.85,0.25h-1.01v-1.87h1.01c0.37,0,0.66,0.08,0.85,0.25c0.19,0.16,0.29,0.39,0.29,0.69
		C66.46,41.9,66.36,42.13,66.17,42.3z"/>
	<path d="M110.13,40.84c0.27-0.14,0.57-0.21,0.91-0.21c0.54,0,1,0.2,1.39,0.61l0.8-0.74
		c-0.26-0.3-0.58-0.53-0.97-0.69s-0.81-0.24-1.28-0.24c-0.56,0-1.07,0.12-1.52,0.36c-0.45,0.24-0.8,0.57-1.06,0.99
		c-0.25,0.42-0.38,0.9-0.38,1.43c0,0.53,0.13,1.01,0.38,1.44c0.26,0.42,0.61,0.75,1.05,0.99c0.45,0.24,0.95,0.35,1.5,0.35
		c0.39,0,0.77-0.06,1.16-0.18s0.72-0.29,1.01-0.51v-2.18h-1.13v1.57c-0.29,0.15-0.61,0.23-0.97,0.23c-0.34,0-0.64-0.07-0.9-0.22
		c-0.26-0.15-0.46-0.35-0.61-0.61s-0.22-0.56-0.22-0.89c0-0.34,0.07-0.64,0.22-0.9C109.66,41.18,109.86,40.98,110.13,40.84z"/>
	<rect x="105.85" y="39.65" width="1.24" height="5.38"/>
</g>
</svg>
