<svg width="156" height="36" viewBox="0 0 156 36" fill="none" xmlns="http://www.w3.org/2000/svg">
<path fill-rule="evenodd" clip-rule="evenodd" d="M40.5381 23.3765H44.1105C45.5044 23.3765 46.0344 23.8575 46.0344 25.0355C46.0344 26.1698 45.5041 26.6503 44.1105 26.6503H40.5381V23.3765ZM35.0038 35.2916H40.5384V30.4465H46.4666C50.3915 30.4465 51.8047 28.1345 51.8047 25.1452C51.8047 21.6752 50.3516 19.7116 46.4266 19.7116H35.0038V35.2916ZM53.6299 19.7116H68.5257V23.5076H59.1645V25.6025H67.8595V29.4002H59.1645V31.4948H68.5257V35.2916H53.6299V19.7116ZM76.3769 23.3765H79.9491C81.3427 23.3765 81.8729 23.8575 81.8729 25.0355C81.8729 26.1698 81.3427 26.6503 79.9491 26.6503H76.3769V23.3765ZM70.8423 35.2916H76.3769V30.4465H82.3041C86.2301 30.4465 87.6435 28.1345 87.6435 25.1452C87.6435 21.6752 86.1904 19.7116 82.2646 19.7116H70.8423V35.2916ZM93.0006 28.6798C90.2926 28.2208 89.1746 26.4752 89.1746 24.2937C89.1746 20.2561 92.7272 19.166 97.2795 19.166C103.52 19.166 106.092 20.9765 106.288 24.272H99.8503C99.8503 23.639 99.5165 23.2454 99.0071 23.0275C98.5162 22.788 97.8886 22.7009 97.2795 22.7009C95.631 22.7009 95.0623 23.1586 95.0623 23.8138C95.0623 24.2495 95.2382 24.5342 95.7878 24.621L102.402 25.7117C105.189 26.1698 106.917 27.6101 106.917 30.2498C106.917 34.0479 104.129 35.8372 97.9074 35.8372C93.6486 35.8372 88.9969 35.1828 88.9776 30.6002H95.6505C95.6693 31.1232 95.8468 31.4723 96.2398 31.7125C96.6508 31.931 97.2596 32.0404 98.1229 32.0404C99.8497 32.0404 100.322 31.5163 100.322 30.7742C100.322 30.316 100.066 29.8581 99.3216 29.7278L93.0006 28.6798ZM108.721 19.7116H114.256V35.2916H108.721V19.7116ZM134.767 29.2254C134.414 31.2766 133.785 32.935 132.411 34.0694C131.057 35.2042 128.937 35.8372 125.562 35.8372C122.206 35.8372 115.984 35.5747 115.984 27.502C115.984 19.4277 122.206 19.1658 125.562 19.1658C128.898 19.1658 134.04 19.6454 134.767 25.8216H128.526C128.369 24.7076 127.7 23.0931 125.562 23.0931C123.304 23.0931 121.871 24.3368 121.871 27.5017C121.871 30.6658 123.265 31.9087 125.287 31.9087C127.034 31.9087 128.074 31.1015 128.526 29.2251H134.767V29.2254ZM142.009 27.5023C142.009 24.3371 143.442 23.0937 145.699 23.0937C147.956 23.0937 149.389 24.3374 149.389 27.5023C149.389 30.6664 147.956 31.9093 145.699 31.9093C143.442 31.909 142.009 30.6661 142.009 27.5023ZM136.12 27.5023C136.12 35.5747 142.342 35.8375 145.699 35.8375C149.055 35.8375 155.277 35.575 155.277 27.5023C155.277 19.428 149.055 19.166 145.699 19.166C142.342 19.166 136.12 19.4277 136.12 27.5023ZM26.6407 19.866C26.9981 12.3912 20.5519 3.97345 11.7639 2.93296L11.7789 2.83081C20.4425 2.83081 27.0841 10.8512 27.0841 17.1786C27.0758 18.4958 26.9718 19.3119 26.7863 19.9044L26.6407 19.866ZM26.1158 20.8162C25.5394 21.5205 24.8144 22.2296 23.9651 22.9028C22.4026 13.9164 15.7991 6.05845 11.1304 3.76487L11.0304 3.83457C15.7256 7.68795 21.3256 15.1719 23.5034 23.2553C22.3926 24.0713 21.1927 24.7585 19.9267 25.3036C15.4961 20.251 11.3655 10.5067 10.0344 4.32331L9.89903 4.36406C9.92906 10.3662 14.1905 20.5556 19.3873 25.5275C18.1954 25.9991 16.9563 26.3415 15.6913 26.5487C10.7098 24.5752 7.1639 18.2545 7.1639 11.7797C7.1639 7.55283 8.45264 4.93806 8.70198 4.40294L8.59581 4.36085C8.2942 4.81715 6.40625 7.43057 6.40625 11.9939C6.40625 19.3127 10.0157 24.9068 14.8076 26.6685C13.094 26.857 11.3615 26.7757 9.67303 26.4275L9.63737 26.539C10.15 26.7277 11.8891 27.4578 14.5422 27.4578C20.5431 27.4578 24.5997 23.7293 26.2326 20.8953L26.1158 20.8162Z" fill="black"/>
<path fill-rule="evenodd" clip-rule="evenodd" d="M13.9418 0.189819C9.39268 0.189819 4.05859 3.47295 4.05859 6.47404C4.05859 7.63491 5.12053 8.61561 7.3184 8.61561C12.4206 8.61561 17.1608 5.11023 17.1608 2.38447C17.1608 0.950146 15.7833 0.189819 13.9418 0.189819ZM15.7579 2.29975C15.7579 4.59735 11.3458 7.40595 7.65754 7.40595C6.02804 7.40595 5.14761 6.76466 5.14761 5.70648C5.14761 3.3759 9.60984 0.615023 13.0694 0.615023C15.3249 0.615023 15.7579 1.76275 15.7579 2.29975Z" fill="black"/>
<path fill-rule="evenodd" clip-rule="evenodd" d="M2.24737 7.86366C2.11949 8.08484 1.60742 9.08753 1.60742 10.1149C1.60742 12.0203 3.53264 13.7892 7.07368 13.7892C13.8858 13.7892 21.7561 8.77493 21.7561 4.12048C21.7561 2.03119 19.7783 0.895254 18.4051 0.6604L18.3794 0.741902C18.8065 0.877023 20.3711 1.60437 20.3711 3.46551C20.3711 7.17411 13.4222 12.2272 6.50048 12.2272C3.8506 12.2272 2.18115 10.9192 2.18115 9.0138C2.18115 8.41112 2.30662 8.01407 2.33987 7.89905L2.24737 7.86366Z" fill="black"/>
<path fill-rule="evenodd" clip-rule="evenodd" d="M24.5643 4.46851C24.7512 4.61033 25.8731 5.54546 25.8731 7.31383C25.8731 13.3434 16.4259 19.2724 8.07383 19.2724C3.0931 19.2724 0.822579 16.8131 0.923116 14.6294H1.01239C1.20757 15.7635 2.82474 17.7927 7.18401 17.7927C15.5465 17.7927 24.8836 11.6578 24.8836 6.28273C24.8836 5.36074 24.6332 4.7862 24.4916 4.5307L24.5643 4.46851Z" fill="black"/>
<path fill-rule="evenodd" clip-rule="evenodd" d="M27.721 10.0974C27.7602 10.2258 27.9636 10.803 27.9636 11.7071C27.9636 18.4144 18.403 24.1565 10.0879 24.1565C5.80828 24.1565 3.57342 22.0777 3.10156 21.2334L3.1777 21.1771C4.36189 22.2128 6.69435 22.9996 9.41635 22.9996C16.7601 22.9996 27.7181 17.4125 27.6202 10.1218L27.721 10.0974Z" fill="black"/>
</svg>
