<svg width="172" height="42" viewBox="0 0 172 42" fill="none" xmlns="http://www.w3.org/2000/svg">
<path d="M18.6687 27.895C17.8745 28.6152 16.7279 28.8551 16.0098 28.9469C14.5467 29.1296 13.0336 28.6441 12.0682 27.4809C11.2753 26.5306 10.8685 25.3 10.0944 24.3161C8.87163 22.7586 6.91697 21.7387 4.90345 22.0991C0.923248 22.8208 -0.882579 27.46 1.36761 30.6782C4.58388 35.2773 11.8167 34.481 15.5288 31.2948C16.6847 30.3042 17.7639 29.2017 18.6687 27.895Z" fill="black"/>
<path d="M153.529 27.8939C154.325 28.6157 155.468 28.8557 156.189 28.9462C157.651 29.1301 159.165 28.6453 160.13 27.4812C160.922 26.5296 161.331 25.3002 162.104 24.3163C163.328 22.7582 165.283 21.7383 167.296 22.0993C171.274 22.8201 173.08 27.4599 170.829 30.6784C167.613 35.2766 160.382 34.4812 156.671 31.2954C155.515 30.3044 154.433 29.2013 153.529 27.8939Z" fill="black"/>
<path d="M140.276 3.36545C140.176 3.36196 130.676 3.36196 130.588 3.36515C129.547 3.39658 128.686 4.36043 128.637 5.35173C128.584 6.40494 129.5 7.44954 130.588 7.5019C130.689 7.5054 140.188 7.5054 140.276 7.5019C141.317 7.47021 142.178 6.50691 142.227 5.51531C142.28 4.46117 141.364 3.41844 140.276 3.36545Z" fill="black"/>
<path d="M79.7753 24.001C79.6425 23.4515 79.5719 22.9109 79.534 22.3653C79.5275 21.5779 79.5275 20.4727 79.5275 19.4555C79.6268 15.9422 80.2828 9.76189 75.5159 9.76189C72.2965 9.76189 70.389 12.4699 69.8485 13.3553C69.7715 10.8866 67.8233 9.09558 64.8471 9.09558C62.9482 9.09558 61.8203 10.6063 61.8203 10.6063C61.8203 10.6063 63.6727 11.2482 63.6727 13.736C63.6927 15.5178 63.6699 24.1911 63.6727 24.2278C63.7457 25.7649 64.8199 27.2059 66.7416 27.2059C68.6633 27.2059 69.8559 25.7295 69.8559 24.225V16.5325C70.1237 15.275 70.8315 13.9917 71.8987 13.9917C73.283 13.9917 73.3606 15.5304 73.3671 15.5304L73.3606 22.9768C73.3671 23.2192 73.3979 23.4515 73.4401 23.6794C73.5085 24.0676 73.626 24.4286 73.7945 24.7601C74.5329 26.2599 76.1664 27.2377 78.3615 27.2377C80.2591 27.2377 81.3873 25.7283 81.3873 25.7283C81.3873 25.7283 80.2736 25.3358 79.7753 24.001" fill="black"/>
<path d="M125.598 24.0011C125.464 23.4515 125.393 22.9109 125.357 22.3654L125.363 3.93527C125.363 2.14275 123.909 0.689697 122.116 0.689697C120.322 0.689697 118.869 2.14275 118.869 3.93527L118.873 20.2574C118.889 21.7277 118.745 23.2301 119.439 24.5808C120.174 26.0813 121.989 27.2378 124.181 27.2378C126.085 27.2378 127.21 25.7283 127.21 25.7283C127.21 25.7283 126.099 25.3359 125.598 24.0011" fill="black"/>
<path d="M53.0463 9.6012C48.1737 9.6012 44.2246 13.5485 44.2246 18.42C44.2246 23.2905 48.1737 27.2378 53.0463 27.2378C57.918 27.2378 61.8687 23.2905 61.8687 18.42C61.8687 13.5485 57.918 9.6012 53.0463 9.6012ZM53.1111 23.4922V23.4966C53.1041 23.4966 53.0981 23.494 53.0917 23.494C53.0847 23.494 53.079 23.4966 53.0735 23.4966V23.4922C51.4079 23.462 50.5728 21.5488 50.5728 18.42C50.5728 15.2957 51.6307 13.38 53.0735 13.3458V13.3452C53.0787 13.3452 53.0849 13.3452 53.0917 13.3458C53.0978 13.3452 53.1037 13.3452 53.1111 13.3452V13.3458C54.552 13.38 55.6112 15.2957 55.6112 18.42C55.6112 21.5488 54.7776 23.4621 53.1111 23.4922Z" fill="black"/>
<path d="M99.6179 24.0011C99.4832 23.4515 99.4117 22.9109 99.3763 22.3654L99.3806 3.93527C99.3806 2.14275 97.9273 0.689697 96.1338 0.689697C94.3406 0.689697 92.887 2.14275 92.887 3.93527L92.8741 12.6647C92.0932 11.5779 90.373 9.74101 87.6628 9.74101C80.2062 9.74101 79.735 23.0141 84.8483 26.2976C86.2899 27.222 88.464 27.4598 90.1089 27.0326C91.2448 26.7366 93.0355 25.6211 93.3234 24.2891C93.3643 24.3868 93.4081 24.4841 93.458 24.5808C94.1939 26.0813 96.0081 27.2378 98.2009 27.2378C100.104 27.2378 101.23 25.7283 101.23 25.7283C101.23 25.7283 100.119 25.3359 99.6179 24.0011H99.6179ZM89.9416 22.9282V22.9308C89.9348 22.9308 89.9296 22.9302 89.9237 22.9302C89.916 22.9302 89.9123 22.9308 89.9037 22.9308V22.9282C88.2378 22.9036 87.4042 21.2339 87.4042 18.5095C87.4042 15.7873 88.4609 14.1199 89.9037 14.0894V14.0868C89.9124 14.0868 89.916 14.0894 89.9237 14.0894C89.9296 14.0894 89.9348 14.0868 89.9416 14.0868V14.0894C91.386 14.1199 92.4429 15.7873 92.4429 18.5095C92.4429 21.2339 91.6075 22.9035 89.9416 22.9282Z" fill="black"/>
<path d="M116.512 21.7813C116.512 21.7813 115.56 23.0856 111.866 23.0856C108.171 23.0856 107.379 20.2149 107.379 20.2149C112.762 20.2149 117.278 19.8545 117.278 15.4971C117.278 11.1408 112.352 9.70374 109.431 9.70374C104.608 9.70374 101.084 13.5488 101.084 18.6238C101.084 24.3396 105.672 27.2377 109.482 27.2377C116.19 27.2377 116.512 21.7813 116.512 21.7813ZM107.03 17.4193C107.219 16.0285 107.552 14.2757 108.803 13.464C109.843 12.7891 111.298 13.5574 111.32 14.8567C111.344 16.2291 110.456 17.1637 109.221 17.4237C109.089 17.4517 107.011 17.5555 107.03 17.4193" fill="black"/>
<path d="M142.486 21.7813C142.486 21.7813 141.534 23.0856 137.84 23.0856C134.146 23.0856 133.353 20.2149 133.353 20.2149C138.737 20.2149 143.252 19.8545 143.252 15.4971C143.252 11.1408 138.326 9.70374 135.405 9.70374C130.582 9.70374 127.059 13.5488 127.059 18.6238C127.059 24.3396 131.647 27.2377 135.456 27.2377C142.165 27.2377 142.486 21.7813 142.486 21.7813ZM133.004 17.4193C133.193 16.0285 133.527 14.2757 134.778 13.464C135.817 12.7891 137.273 13.5574 137.295 14.8567C137.319 16.2291 136.431 17.1637 135.195 17.4237C135.064 17.4517 132.986 17.5555 133.004 17.4193" fill="black"/>
<path d="M154.668 22.2529H150.969C151.241 22.2529 153.977 19.9462 154.885 19.1774C157.262 17.1612 161.535 14.2523 160.29 10.4843L160.292 10.5108C160.064 9.6134 159.373 9.09558 159.373 9.09558C159.373 9.09558 159.114 9.82811 158.236 10.1559C157.877 10.2428 157.518 10.3084 157.16 10.3296C156.864 10.3349 146.819 10.3296 146.819 10.3296C145.461 10.3279 144.322 11.4201 144.303 12.7084C144.288 14.0077 145.362 15.0498 146.739 15.0683L152.599 15.1056C149.883 16.6199 146.639 18.4134 144.992 21.1516C144.051 22.7232 143.045 25.1463 143.427 27.0051C144.729 25.8515 148.146 24.7348 150.746 25.2776C151.72 25.4809 152.755 25.9778 153.597 26.5039C158.475 29.5539 161.407 23.5885 159.074 20.9591C159.074 20.9591 157.745 22.2529 154.668 22.2529" fill="black"/>
<path d="M44.7015 25.9629C41.7096 22.6834 40.7737 17.2298 40.5894 13.605C40.4307 10.4734 40.6002 5.04995 43.0689 3.47152C42.2424 2.4331 40.6122 2.01477 39.3734 2.01477C36.5901 2.01477 35.2484 3.86798 34.2965 5.20059C33.9821 5.64079 29.3018 12.095 29.3018 12.095C29.3018 12.095 25.365 6.00705 24.8812 5.27575C24.2125 4.26659 22.9605 2.41216 20.7599 2.09117C19.8123 1.95286 17.3541 1.82717 16.0161 3.66282C18.3224 5.5074 18.2647 10.2048 17.764 13.4119C16.2617 23.0383 12.1641 23.9249 12.1641 23.9249C14.2629 29.5914 19.6684 27.3525 21.1959 22.8347C22.1851 19.8981 22.824 16.1809 22.9713 13.0983L28.9033 22.1946C28.9033 22.1946 35.6203 13.1266 35.6203 13.1346C34.514 29.1715 40.0236 33.7177 44.8417 33.7177C49.6638 33.7177 51.3048 29.3095 51.3048 29.3095C48.6974 29.1521 46.4155 27.8414 44.7015 25.9629Z" fill="black"/>
<path d="M59.7466 31.1788C59.8045 31.4145 59.8348 31.6461 59.8502 31.879C59.8508 31.9498 59.8458 40.269 59.8498 40.3685C59.8708 41.0674 60.5176 41.6441 61.1826 41.6771C61.8899 41.7128 62.59 41.0983 62.6255 40.3685C62.6285 40.2733 62.6255 32.7813 62.6255 32.7813C62.619 32.1523 62.6803 31.5091 62.3835 30.9315C62.0683 30.2889 61.2917 29.7936 60.3537 29.7936C59.5389 29.7936 59.0566 30.4402 59.0566 30.4402C59.0566 30.4402 59.5324 30.6077 59.7466 31.1788Z" fill="black"/>
<path d="M147.728 40.293C147.67 40.0573 147.64 39.8263 147.624 39.5925C147.624 39.5219 147.628 31.2032 147.625 31.1043C147.604 30.405 146.957 29.8283 146.292 29.7948C145.585 29.7597 144.885 30.3742 144.849 31.1043C144.846 31.1995 144.849 38.6908 144.849 38.6908C144.856 39.3196 144.794 39.9625 145.091 40.5413C145.406 41.1836 146.182 41.6783 147.121 41.6783C147.936 41.6783 148.418 41.0323 148.418 41.0323C148.418 41.0323 147.942 40.8638 147.728 40.293" fill="black"/>
<path d="M97.5129 34.1007C96.0698 34.1007 95.2156 35.3137 94.9737 35.7105L94.9654 35.7166C94.9651 35.3152 94.9638 34.9979 94.9638 34.9819C94.9426 34.2833 94.296 33.7611 93.6313 33.7288C92.925 33.6931 92.2243 34.2531 92.1891 34.9819C92.187 35.0768 92.187 40.293 92.1891 40.3635C92.2107 41.0612 92.8569 41.6379 93.5222 41.6709C94.2285 41.706 94.9284 41.092 94.9638 40.3635C94.9654 40.3096 94.9663 38.6073 94.9657 37.1413L94.9771 37.1335C95.0963 36.5704 95.4134 35.9949 95.8923 35.9949C96.5123 35.9949 96.5465 36.6846 96.5496 36.6846L96.5434 40.3633C96.565 41.0611 97.2112 41.6377 97.8765 41.6707C98.5828 41.7058 99.2826 41.0919 99.3181 40.3633L99.3144 38.4408C99.3144 36.4641 99.5206 34.0912 97.5129 34.1005" fill="black"/>
<path d="M132.984 34.1007C131.541 34.1007 130.686 35.3137 130.444 35.7105L130.436 35.7166C130.436 35.3152 130.435 34.9979 130.435 34.9819C130.413 34.2833 129.767 33.7611 129.102 33.7288C128.396 33.6931 127.695 34.2531 127.66 34.9819C127.658 35.0768 127.658 40.293 127.66 40.3635C127.681 41.0612 128.328 41.6379 128.993 41.6709C129.699 41.706 130.399 41.092 130.435 40.3635C130.436 40.3096 130.437 38.6073 130.437 37.1413L130.448 37.1335C130.567 36.5704 130.884 35.9949 131.363 35.9949C131.983 35.9949 132.017 36.6846 132.02 36.6846L132.014 40.3633C132.036 41.0611 132.682 41.6377 133.347 41.6707C134.053 41.7058 134.753 41.0919 134.789 40.3633L134.785 38.4408C134.785 36.4641 134.991 34.0912 132.983 34.1005" fill="black"/>
<path d="M69.339 34.1007C67.8962 34.1007 67.0417 35.3137 66.7998 35.7105L66.7918 35.7166C66.7911 35.3152 66.7902 34.9979 66.7902 34.9819C66.7689 34.2833 66.1227 33.7611 65.4574 33.7288C64.7514 33.6931 64.0503 34.2531 64.0155 34.9819C64.0131 35.0768 64.0131 40.293 64.0155 40.3635C64.0371 41.0612 64.6836 41.6379 65.3486 41.6709C66.0546 41.706 66.7544 41.092 66.7902 40.3635C66.7918 40.3096 66.7924 38.6073 66.7918 37.1413L66.8035 37.1335C66.9224 36.5704 67.2398 35.9949 67.7187 35.9949C68.3387 35.9949 68.3729 36.6846 68.376 36.6846L68.3702 40.3633C68.3911 41.0611 69.0376 41.6377 69.7026 41.6707C70.4093 41.7058 71.1091 41.0919 71.1445 40.3633L71.1405 38.4408C71.1405 36.4641 71.347 34.0912 69.339 34.1005" fill="black"/>
<path d="M122.925 33.7524C120.742 33.7524 118.973 35.5206 118.973 37.7031C118.973 39.8859 120.742 41.6535 122.925 41.6535C125.108 41.6535 126.878 39.8859 126.878 37.7031C126.878 35.5206 125.108 33.7524 122.925 33.7524ZM122.954 39.9756V39.9773C122.95 39.9773 122.948 39.9767 122.945 39.9767C122.941 39.9767 122.939 39.9773 122.938 39.9773V39.9756C122.19 39.9611 121.817 39.105 121.817 37.7031C121.817 36.3034 122.29 35.4454 122.938 35.43V35.4297C122.939 35.4297 122.941 35.4297 122.945 35.43C122.948 35.4297 122.95 35.4297 122.954 35.4297V35.43C123.6 35.4454 124.073 36.3034 124.073 37.7031C124.073 39.105 123.7 39.9611 122.954 39.9756Z" fill="black"/>
<path d="M108.165 34.8865C108.142 34.1552 107.454 33.5508 106.758 33.516C106.017 33.4793 105.284 34.1226 105.247 34.8865C105.246 34.9395 105.239 35.0532 105.239 35.0738C104.888 34.5865 104.119 33.7637 102.904 33.7637C99.5632 33.7637 99.3514 39.7109 101.643 41.1818C102.289 41.5961 103.263 41.702 104.001 41.5111C104.417 41.4023 105.031 41.0472 105.31 40.5937C105.481 41.1778 106.059 41.6226 106.654 41.6521C107.394 41.6888 108.128 41.0465 108.165 40.2823C108.168 40.1828 108.167 34.9534 108.165 34.8865H108.165ZM103.925 39.6726V39.6735C103.923 39.6735 103.92 39.6732 103.917 39.6732C103.914 39.6732 103.912 39.6735 103.908 39.6735V39.6726C103.162 39.6609 102.788 38.9124 102.788 37.6919C102.788 36.4727 103.261 35.7256 103.908 35.7115V35.7106C103.912 35.7106 103.913 35.7115 103.917 35.7115C103.92 35.7115 103.923 35.7106 103.925 35.7106V35.7115C104.572 35.7256 105.046 36.4727 105.046 37.6919C105.046 38.9124 104.671 39.6609 103.925 39.6726Z" fill="black"/>
<path d="M143.608 34.8865C143.586 34.1552 142.898 33.5508 142.201 33.516C141.46 33.4793 140.728 34.1226 140.69 34.8865C140.689 34.9395 140.682 35.0532 140.682 35.0738C140.333 34.5865 139.562 33.7637 138.347 33.7637C135.007 33.7637 134.795 39.7109 137.086 41.1818C137.733 41.5961 138.707 41.702 139.443 41.5111C139.86 41.4023 140.475 41.0472 140.754 40.5937C140.924 41.1778 141.503 41.6226 142.097 41.6521C142.838 41.6888 143.571 41.0465 143.608 40.2823C143.611 40.1828 143.609 34.9534 143.608 34.8865H143.608ZM139.369 39.6726V39.6735C139.366 39.6735 139.363 39.6732 139.361 39.6732C139.357 39.6732 139.356 39.6735 139.351 39.6735V39.6726C138.605 39.6609 138.232 38.9124 138.232 37.6919C138.232 36.4727 138.705 35.7256 139.351 35.7115V35.7106C139.356 35.7106 139.357 35.7115 139.361 35.7115C139.363 35.7115 139.366 35.7106 139.369 35.7106V35.7115C140.016 35.7256 140.489 36.4727 140.489 37.6919C140.489 38.9124 140.115 39.6609 139.369 39.6726Z" fill="black"/>
<path d="M118.101 35.6307C118.068 34.9416 117.526 34.4013 116.844 34.3437C116.803 34.3393 116.765 34.3311 116.725 34.3311C116.108 34.3311 115.33 34.8652 115.33 35.5404L115.334 38.0984H115.33C115.339 38.8963 115.329 40.3376 115.33 40.354C115.363 41.0431 115.905 41.5837 116.587 41.641C116.628 41.6462 116.665 41.6536 116.705 41.6536C117.323 41.6536 118.101 41.1195 118.101 40.4446L118.098 38.3073H118.101C118.092 37.5086 118.102 35.6464 118.101 35.6307Z" fill="black"/>
<path d="M118.09 32.1713C118.09 32.9301 117.474 33.5449 116.715 33.5449C115.955 33.5449 115.34 32.9301 115.34 32.1713C115.34 31.4111 115.955 30.7953 116.715 30.7953C117.474 30.7953 118.09 31.4111 118.09 32.1713Z" fill="black"/>
<path d="M89.9806 34.0053C89.1566 34.0392 88.7492 34.6528 88.1883 35.4236C88.1843 35.4297 88.1889 35.0674 88.1886 35.0536C88.1671 34.3556 87.5211 33.7789 86.8571 33.7453C86.1495 33.7102 85.4497 34.3241 85.4146 35.0536V40.38H85.4121C85.4334 41.0787 86.0793 41.6556 86.7446 41.6883C87.4447 41.7228 88.1372 41.1199 88.1843 40.4004H88.1905L88.1899 37.0263C88.2318 36.5316 88.4475 35.9137 88.8457 35.9167C89.4087 35.922 88.8269 37.2832 90.1187 37.2832C91.9714 37.2832 92.1692 33.9151 89.9806 34.0053" fill="black"/>
<path d="M84.3214 39.2053C84.3214 39.2053 83.8942 39.7899 82.2376 39.7899C80.5803 39.7899 80.2238 38.5026 80.2238 38.5026C82.6394 38.5026 84.665 38.3406 84.665 36.386C84.665 34.4318 82.4554 33.7874 81.1451 33.7874C78.9816 33.7874 77.4004 35.5118 77.4004 37.7883C77.4004 40.3527 79.4589 41.6527 81.168 41.6527C84.1771 41.6527 84.3214 39.2053 84.3214 39.2053ZM80.0672 37.2479C80.1516 36.6241 80.3017 35.8377 80.8638 35.4739C81.3297 35.1711 81.9827 35.5158 81.9929 36.0983C82.0034 36.7141 81.6052 37.1333 81.0509 37.2501C80.992 37.2624 80.0589 37.3096 80.0672 37.2483" fill="black"/>
<path d="M77.2314 40.1932C77.2314 40.1932 76.5099 41.6536 75.1762 41.6536C74.0786 41.6536 72.7276 40.6845 72.6712 39.2817C72.6702 39.2687 72.6635 37.2501 72.6583 35.5629H72.2857C72.0909 35.5629 71.7461 35.4468 71.7461 34.9397C71.7461 34.433 72.1341 34.3255 72.3257 34.3255H72.6552C72.6536 33.7356 72.653 33.3302 72.6539 33.3049C72.6888 32.5773 73.3877 31.9649 74.0924 32.0004C74.7559 32.0336 75.4175 32.6081 75.4385 33.3049V34.3249H76.6132C76.7759 34.3249 77.1525 34.4312 77.1525 34.9478C77.1525 35.4641 76.7759 35.5629 76.5725 35.5629H75.4385V38.6613C75.4385 39.6667 76.3044 40.1885 77.2351 40.1916" fill="black"/>
<path d="M114.358 40.1932C114.358 40.1932 113.636 41.6536 112.303 41.6536C111.205 41.6536 109.854 40.6845 109.798 39.2817C109.797 39.2687 109.79 37.2501 109.785 35.5629H109.412C109.217 35.5629 108.873 35.4468 108.873 34.9397C108.873 34.433 109.261 34.3255 109.453 34.3255H109.782C109.78 33.7356 109.78 33.3302 109.781 33.3049C109.816 32.5773 110.514 31.9649 111.219 32.0004C111.883 32.0336 112.544 32.6081 112.565 33.3049V34.3249H113.74C113.902 34.3249 114.279 34.4312 114.279 34.9478C114.279 35.4641 113.902 35.5629 113.699 35.5629H112.565V38.6613C112.565 39.6667 113.431 40.1885 114.362 40.1916" fill="black"/>
</svg>
