<svg width="146" height="30" viewBox="0 0 146 30" fill="none" xmlns="http://www.w3.org/2000/svg">
<g clip-path="url(#clip0)">
<path fill-rule="evenodd" clip-rule="evenodd" d="M78.5944 14.7011C78.5944 14.7011 77.2599 13.8695 76.4347 13.5477C76.4347 13.5477 73.8804 12.3547 73.3737 11.787C73.3737 11.787 72.3782 10.8415 72.9611 9.74336C72.9611 9.74336 73.205 9.02476 74.2571 9.02476C74.2571 9.02476 75.6267 9.10068 75.6267 10.2351V11.8353H80.5349L80.5264 9.47853C80.5264 9.47853 80.9038 5.61895 74.745 5.44901C74.745 5.44901 69.9009 5.12809 68.5116 7.7575C68.5116 7.7575 67.9664 8.34412 67.9664 10.3869V11.8629C67.9664 11.8629 67.9107 13.5658 68.7736 14.6632C68.7736 14.6632 69.2615 15.3826 70.4633 16.1763C70.4633 16.1763 72.9037 17.5005 74.3683 18.2588C74.3683 18.2588 75.8466 19.1094 75.6523 20.4629C75.6523 20.4629 75.5316 21.8526 74.1038 21.7957C74.1038 21.7957 72.7985 21.737 72.7985 20.374V18.7746H67.5683V21.0978C67.5683 21.0978 67.422 25.5405 74.1424 25.5405C74.1424 25.5405 80.564 25.6717 80.8636 20.9813V19.0895C80.8628 19.0895 81.0905 16.2151 78.5944 14.7011ZM53.4659 6.00197L51.8223 16.3816H51.438L49.8681 6.09514H41.6694L41.2585 24.8918H46.1129L46.1711 10.7294H46.5529L49.126 24.8892H54.2328L56.7743 10.7346H57.1124L57.2297 24.8918H62.1097L61.5841 6.00197H53.4659ZM24.5693 6.08048L21.3396 24.8702H26.5654L28.4786 10.3015H28.9083L30.8206 24.8702H36.0456L32.8167 6.08048H24.5693ZM134.224 14.4423V17.2141H135.564V20.1894C135.564 21.6439 134.331 21.6706 134.331 21.6706C132.831 21.6706 132.887 20.2886 132.887 20.2886V9.99699C132.887 8.93677 134.218 8.87983 134.218 8.87983C135.496 8.87983 135.504 10.1445 135.504 10.1445V11.7094H140.424C140.585 8.65468 139.981 7.91537 139.981 7.91537C138.76 5.15311 134.143 5.30408 134.143 5.30408C127.048 5.30408 127.835 10.7906 127.835 10.7906V20.7415C127.988 25.8873 134.979 25.3646 135.098 25.3602C138.207 25.0135 139.146 24.0171 139.146 24.0171C140.011 23.3701 140.234 22.4738 140.234 22.4738C140.481 21.9518 140.543 20.2886 140.543 20.2886V14.4423H134.224ZM117.914 17.5005H117.7L112.707 6.00715H106.733V24.8935H111.595L111.304 13.4019H111.522L116.695 24.8935H122.487V6.00542H117.563L117.914 17.5005ZM94.8651 20.1877C94.8651 20.1877 94.9353 21.7379 93.5092 21.7379C93.5092 21.7379 92.0095 21.819 92.0095 20.2265L91.9941 6.01836H86.6613V20.1135C86.6613 20.1135 86.1143 25.4482 93.5845 25.4482C93.5845 25.4482 100.076 25.5259 100.076 20.3585V6.01923H94.8651V20.1877ZM14.4026 14.7011C14.4026 14.7011 13.0699 13.8695 12.2438 13.5486C12.2438 13.5486 9.69125 12.3564 9.1845 11.7879C9.1845 11.7879 8.18898 10.8407 8.77277 9.74509C8.77277 9.74509 9.01587 9.02649 10.067 9.02649C10.067 9.02649 11.4375 9.10154 11.4375 10.2359V11.8362H16.3475L16.338 9.47853C16.338 9.47853 16.713 5.61895 10.5567 5.44987C10.5567 5.44987 10.0927 5.41967 9.4122 5.45418C9.4122 5.45418 5.68264 5.65604 4.349 7.71782C4.3413 7.73335 4.33017 7.74457 4.32247 7.75837C4.32247 7.75837 3.77806 8.34412 3.77806 10.3878V11.8638C3.77806 11.8638 3.72156 13.5667 4.58526 14.664C4.58526 14.664 5.07317 15.3835 6.27499 16.1771C6.27499 16.1771 8.71456 17.5013 10.1792 18.2596C10.1792 18.2596 11.6592 19.1085 11.4632 20.4637C11.4632 20.4637 11.3425 21.8535 9.91552 21.7966C9.91552 21.7966 8.61013 21.7379 8.61013 20.3749V18.7746H3.37916V21.0995C3.37916 21.0995 3.23279 25.5423 9.95319 25.5423C9.95319 25.5423 16.3731 25.6734 16.6753 20.9831V19.093C16.6753 19.0912 16.8996 16.2151 14.4026 14.7011Z" fill="black"/>
</g>
<defs>
<clipPath id="clip0">
<rect width="145" height="29" fill="white" transform="translate(0.277344 0.513672)"/>
</clipPath>
</defs>
</svg>
