<svg width="131" height="37" viewBox="0 0 131 37" fill="none" xmlns="http://www.w3.org/2000/svg">
<g clip-path="url(#clip0)">
<path fill-rule="evenodd" clip-rule="evenodd" d="M103.022 2.46062C103.022 1.41622 102.11 0.487549 100.97 0.487549H98.119C96.9786 0.487549 96.0664 1.41622 96.0664 2.46062L96.181 33.5757C96.181 34.6201 96.9786 35.5488 98.119 35.5488H100.97C102.11 35.5488 103.022 34.6201 103.022 33.5757V2.46062Z" fill="black"/>
<path fill-rule="evenodd" clip-rule="evenodd" d="M106.672 3.38926V4.7827C106.672 5.47807 107.128 5.94285 107.812 5.94285H127.881C128.794 5.94285 129.592 5.13173 129.592 4.20307V1.76343C129.592 0.834765 128.794 -0.0938914 127.881 0.0236476C127.881 0.0236476 108.495 1.99672 107.812 2.11247C107.128 2.11247 106.672 2.69209 106.672 3.38926Z" fill="black"/>
<path fill-rule="evenodd" clip-rule="evenodd" d="M90.3645 35.5487C85.3472 35.5487 82.2679 31.7174 82.2679 27.4222V14.9988H80.7847C80.1008 14.9988 79.416 14.3016 79.416 13.6054V11.5148C79.416 10.7036 80.0999 10.1213 80.7847 10.1213H82.2679V2.45963C82.2679 1.41523 83.0655 0.486572 84.2059 0.486572H87.057C88.0828 0.486572 88.8813 1.41523 88.8813 2.45963V10.1213H93.3283C94.1268 10.1213 94.697 10.7027 94.697 11.5148V13.6054C94.697 14.3008 94.1277 14.9988 93.3283 14.9988H88.8813V26.4936C88.8813 28.6981 90.2499 30.3249 92.6444 30.3249H93.101C93.8994 30.3249 94.5842 30.9045 94.5842 31.8341V34.0404C94.5842 34.8533 93.9003 35.5496 93.101 35.5496H90.3645V35.5488V35.5487Z" fill="black"/>
<path fill-rule="evenodd" clip-rule="evenodd" d="M56.155 22.43C56.155 15.8127 52.2781 9.19543 43.4968 9.19543C35.4002 9.19543 30.9531 15.6952 30.9531 22.43C30.9531 29.6269 35.7422 36.0136 43.6105 36.0136C48.9706 36.0136 54.2161 33.2276 55.242 28.4676C55.3557 27.888 54.9 26.9585 54.1016 26.9585H50.2247C49.5408 26.9585 48.9706 27.3057 48.6278 27.8871C47.4874 29.512 45.8913 30.325 43.6105 30.325C40.1892 30.325 37.9084 27.6538 37.6802 24.6363H53.987C55.4711 24.6363 56.155 23.8234 56.155 22.43ZM37.7947 19.644C38.023 16.7423 40.5312 14.5359 43.4968 14.5359C46.5761 14.5359 49.0843 16.7423 49.4271 19.644H37.7947Z" fill="black"/>
<path fill-rule="evenodd" clip-rule="evenodd" d="M130.277 22.43C130.277 15.8127 126.4 9.19543 117.619 9.19543C109.522 9.19543 105.076 15.6952 105.076 22.43C105.076 29.6269 109.866 36.0136 117.734 36.0136C123.094 36.0136 128.338 33.2276 129.365 28.4676C129.48 27.888 129.022 26.9585 128.225 26.9585H124.348C123.664 26.9585 123.094 27.3057 122.751 27.8871C121.61 29.512 120.014 30.325 117.619 30.325C114.312 30.325 112.031 27.6538 111.803 24.6363H128.111C129.593 24.6363 130.277 23.8234 130.277 22.43ZM111.918 19.644C112.145 16.7423 114.653 14.5359 117.619 14.5359C120.698 14.5359 123.207 16.7423 123.436 19.644H111.918Z" fill="black"/>
<path fill-rule="evenodd" clip-rule="evenodd" d="M76.7943 0.834751H24.1097C22.8556 0.834751 21.9434 1.88095 21.9434 3.04111L22.0571 24.1724C22.0571 24.1724 10.7676 3.27439 10.1973 2.22819C9.62802 1.18378 8.37304 0.255127 6.777 0.255127H2.4436C1.1895 0.255127 0.277344 1.30133 0.277344 2.46148V33.3433C0.277344 34.621 1.1895 35.5496 2.4436 35.5496H5.18006C6.43417 35.5496 7.3472 34.621 7.3472 33.3433L7.23351 11.7499C7.23351 11.7499 18.6368 32.7637 19.207 33.5766C19.7772 34.7367 20.9176 35.5496 22.5136 35.5496H26.5051C27.7592 35.5496 28.6713 34.621 28.6713 33.3433V6.06128H76.7943C77.5919 6.06128 78.2766 5.36411 78.2766 4.55209V2.34573C78.2766 1.53192 77.5927 0.834751 76.7943 0.834751Z" fill="black"/>
<path fill-rule="evenodd" clip-rule="evenodd" d="M68.2414 14.3018C70.5222 14.3018 72.2328 15.1147 72.9176 16.6239C73.1459 17.321 73.7152 17.4368 74.5145 17.4368H77.7075C78.164 17.4368 78.8479 16.972 78.8479 16.2766C78.8479 12.5611 74.4 9.19458 68.2423 9.19458C61.8563 9.19458 57.6375 12.3278 57.6375 17.2053C57.6375 21.0366 60.6022 23.2429 64.1371 24.2873C65.8478 24.6364 68.6988 25.3318 70.0666 25.7965C71.4353 26.1456 72.803 26.6094 72.803 27.8871C72.803 29.976 70.7505 30.5565 68.356 30.5565C66.1888 30.5565 64.0226 29.6278 63.4524 28.0029C63.1104 27.0742 62.4256 26.9585 61.5135 26.9585H58.3205C57.7503 26.9585 57.0664 27.5381 57.0664 28.2344V28.6992C57.0664 32.299 61.8563 36.0136 68.4697 36.0136C73.0313 36.0136 79.5318 34.0405 79.5318 27.7696C79.5318 24.0541 77.1364 21.5014 73.1459 20.457C71.6626 20.1079 68.014 19.0635 67.2156 18.946C65.7323 18.4812 64.3645 18.0173 64.3645 16.8572C64.3645 14.8841 66.0751 14.3018 68.2414 14.3018Z" fill="black"/>
</g>
<defs>
<clipPath id="clip0">
<rect width="130" height="36" fill="white" transform="translate(0.277344 0.0135498)"/>
</clipPath>
</defs>
</svg>
