<svg width="131" height="42" viewBox="0 0 131 42" fill="none" xmlns="http://www.w3.org/2000/svg">
<path d="M64.106 41.5412C57.9329 41.3165 51.5913 39.811 45.1081 37.0313C42.4697 35.9 39.6793 34.4987 36.8397 32.8789C34.967 31.8107 30.6801 29.1868 30.4414 28.9628C30.2912 28.8219 30.2324 28.6897 30.2324 28.4929C30.2324 28.1289 30.4941 27.8688 30.8598 27.8694C31.0493 27.8696 31.0951 27.8896 31.5428 28.1671C33.3394 29.2807 35.8245 30.542 38.2459 31.5695C49.5232 36.3545 62.8836 38.0348 75.7086 36.281C84.4672 35.0832 92.8859 32.2807 99.4531 28.3766C100.401 27.8134 100.488 27.7838 100.772 27.93C101.164 28.1321 101.249 28.6267 100.944 28.9293C100.824 29.0483 100.676 29.1427 98.5204 30.4811C92.7713 34.0505 88.1297 36.4071 83.2969 38.2101C76.7965 40.6354 70.2823 41.7661 64.106 41.5412Z" fill="black"/>
<path fill-rule="evenodd" clip-rule="evenodd" d="M0.810561 1.44015C0.810561 1.44015 0.932106 1.82272 1.04969 2.90997C1.19064 5.61846 1.19812 7.86351 1.21441 10.3668C1.24686 12.2998 1.22789 14.1834 1.21113 15.9972C1.19986 17.2255 1.19137 17.8951 1.19137 19.0119C1.19137 22.3352 0.927767 24.6644 0.927767 24.6644C0.927767 24.6644 3.38476 25.1931 7.09333 25.1931C10.8032 25.1931 14.7394 23.9094 17.0108 21.9832C19.2815 20.0572 21.3251 17.3002 21.3251 12.3537C21.3251 7.40697 19.2058 4.68786 16.4052 2.91331C13.6038 1.13795 9.32683 0.798637 6.03359 0.949429C2.74115 1.10083 0.92448 1.44015 0.810547 1.44015H0.810561ZM129.801 20.0572L124.846 18.8869C123.546 20.1701 122.141 20.8079 120.338 20.7746C116.624 20.7067 114.778 18.5227 114.092 14.9212H130.064C130.291 13.6374 130.366 12.2779 130.291 10.9941C130.139 8.40096 129.341 6.01424 127.717 3.97055C126.11 1.94722 123.345 0.886114 119.926 0.911495C116.716 0.935789 114.092 2.0334 112.015 4.23508C110.063 6.3034 108.894 9.45758 108.949 13.5618C109.001 17.4609 109.995 20.3639 112.431 22.7385C114.126 24.3917 116.406 25.2747 119.395 25.2683C125.092 25.0969 127.459 23.265 129.801 20.0572ZM125.745 10.919H114.28C114.482 7.96039 117.197 5.20485 120.073 5.21849C123.051 5.23213 125.608 7.35675 125.745 10.919ZM75.4691 5.38827C79.2608 5.38827 82.3355 8.81281 82.3355 13.0356C82.3355 17.2585 79.2608 20.6832 75.4691 20.6832C71.6788 20.6832 68.6035 17.2585 68.6035 13.0356C68.6035 8.81281 71.6788 5.38827 75.4691 5.38827ZM75.6168 0.810184C81.9793 0.810184 87.1384 6.32553 87.1384 13.0356C87.1384 19.7458 81.8317 25.1873 75.4691 25.1873C69.1078 25.1873 63.9482 19.7458 63.9482 13.0356C63.9482 6.32553 69.2555 0.810184 75.6168 0.810184ZM88.1369 24.3622H93.2805V8.84146C97.9868 12.9579 101.455 18.1318 103.536 24.3622L107.955 24.3886V1.59094L103.029 1.59095L103.024 12.7601C101.482 10.1874 99.5941 8.07143 97.7376 6.24734C95.8783 4.42041 94.3681 2.87345 92.4857 1.59095H88.1369V24.3622ZM43.2026 24.3622H48.1988V8.84146C52.9049 12.9579 56.2996 18.1318 58.3811 24.3622H62.8472V1.59094H57.8505V12.5782C54.9473 8.40496 51.4302 4.65651 47.4046 1.59094H43.2026V24.3622ZM28.9335 1.59094H33.7783C38.4827 6.78373 41.3624 14.3364 42.3327 24.3622H37.071C36.9343 22.6209 36.721 21.0206 36.4318 19.4137H26.0452C25.7568 21.0181 25.5454 22.6182 25.4133 24.3622H20.3035C21.2252 14.276 24.313 6.47197 28.9335 1.59094ZM35.4623 15.1484C34.3329 11.5495 32.9882 8.58887 31.1683 5.85822C29.36 8.59945 27.9458 11.6899 26.9462 15.1484H35.4623ZM6.07767 5.40524C6.07767 5.40524 7.09335 5.3673 8.34294 5.3673C9.59233 5.3673 12.3212 5.59397 14.3269 7.55777C16.3327 9.52164 16.3707 11.7493 16.3707 13.298C16.3707 14.8462 15.8374 18.2069 12.5441 19.7172C9.25148 21.2282 6.03986 20.6617 6.03986 20.6617L6.07767 5.40524Z" fill="black"/>
</svg>
