<svg width="124" height="32" viewBox="0 0 124 32" fill="none" xmlns="http://www.w3.org/2000/svg">
<path d="M5.42461 0.853339L0.355361 0.834839L0.854885 2.05587L0.873386 24.6635L0.318359 25.94H5.44311L4.88808 24.682V13.8592V2.11137L5.42461 0.853339Z" fill="black"/>
<path d="M15.4527 21.944L9.36589 13.3413L17.4138 4.05403C18.8198 2.46299 20.4664 1.37146 21.965 1.09395L22.1685 0.871948H14.4536L14.9902 2.11148L4.88867 13.8593L11.0495 22.61C13.3436 25.8661 15.0827 28.0492 17.8763 29.6772C20.3739 31.1203 23.6301 31.9343 27.2378 31.4718C27.3118 31.3238 27.4228 31.0648 27.5153 30.8798C24.6476 30.4172 22.002 29.2887 20.1334 27.5682C18.7273 26.3101 17.6543 25.2371 15.4527 21.944Z" fill="black"/>
<path d="M94.7105 23.4241V14.6919H102.795L103.85 12.1758H94.7105V3.35108H102.555L103.887 3.8321L105.126 0.853516H90.1777L90.7143 2.09305V24.6637L90.1777 25.9402H103.85L105.145 22.8691L103.757 23.4241H94.7105Z" fill="black"/>
<path d="M122.091 23.4241H113.044V14.6919L113.026 2.16705L113.581 0.853516H108.512L109.048 2.09305V24.6637L108.512 25.9402H122.165L123.479 22.8691L122.091 23.4241Z" fill="black"/>
<path d="M28.1245 23.5719V14.8397H36.1909L37.2455 12.3236H28.1245V3.49891H35.9504L37.2825 3.97992L38.5405 1.00134H23.5918L24.1098 2.24088V24.8115L23.5918 26.088H37.2455L38.559 23.0169L37.153 23.5719H28.1245Z" fill="black"/>
<path d="M60.0016 23.4795L53.4893 14.2663C56.7824 13.6558 59.7056 11.6022 59.7056 7.4026C59.7056 3.22149 56.0794 0.705418 50.1221 0.77942L46.0704 0.816421L41.6672 0.871923L42.2037 2.11146V24.6821L41.4082 25.9771H46.755L46.1444 24.6821V2.99948V2.94398L46.1814 2.88848C48.7346 2.62947 51.1027 2.44447 52.7308 3.16599C54.1738 3.795 55.7649 5.29354 55.7649 7.4026C55.7649 8.90114 55.2654 10.0297 54.5438 10.8067C52.8603 12.6012 50.2331 12.6382 47.3655 12.1942L47.4025 12.2497C47.2545 12.2312 47.1805 12.2127 47.1805 12.2127L55.4134 23.9975C56.8565 26.3841 59.6871 26.1066 62.2032 26.0141L62.1847 25.7181C61.7592 25.6256 60.7601 24.5711 60.0016 23.4795Z" fill="black"/>
<path d="M83.2394 2.20392V12.2312V12.9157V14.7473V16.8563L69.1047 0.890381L64.7015 0.927382L64.572 0.908881V0.927382H63.7949L65.0715 2.38892V24.719L64.5165 26.0141H68.6422L68.0871 24.719V14.7473V12.2312V5.81151L78.2441 17.3558C78.2441 17.3558 78.2626 17.3558 78.2626 17.3373L82.6658 22.4065C82.8324 22.6285 83.0174 22.8135 83.2024 22.98V23.017L85.848 25.9956L86.1995 25.9771V2.20392L86.773 0.908881H82.6288L83.2394 2.20392Z" fill="black"/>
</svg>
