<svg version="1.2" baseProfile="tiny" id="Слой_1"
	 xmlns="http://www.w3.org/2000/svg" xmlns:xlink="http://www.w3.org/1999/xlink" x="0px" y="0px" width="20px" height="20px"
	 viewBox="0 0 20 20" xml:space="preserve">
	<path d="M10,7.28c-2.37,0-4.3,1.93-4.3,4.3c0,2.37,1.93,4.3,4.3,4.3s4.3-1.93,4.3-4.3C14.3,9.21,12.37,7.28,10,7.28
		z M10.63,11.58c0,0.35-0.28,0.63-0.63,0.63c-0.35,0-0.63-0.28-0.63-0.63V8.97c0-0.35,0.28-0.63,0.63-0.63
		c0.35,0,0.63,0.28,0.63,0.63V11.58z"/>
	<path d="M15.95,5.63c-3.29-3.29-8.61-3.29-11.9,0c-3.29,3.29-3.29,8.61,0,11.9c3.29,3.29,8.61,3.29,11.9,0
		C19.24,14.24,19.24,8.92,15.95,5.63z M10,17.14c-3.06,0-5.56-2.49-5.56-5.56S6.94,6.03,10,6.03c3.06,0,5.56,2.49,5.56,5.56
		S13.06,17.14,10,17.14z"/>
	<path d="M12.3,2.19V1.42C12.3,0.64,11.66,0,10.88,0H9.43C8.65,0,8.01,0.64,8.01,1.42v0.7
		C9.42,1.82,10.89,1.85,12.3,2.19z"/>
	<path d="M4.86,3.39C4.46,3.1,3.91,3.11,3.51,3.43L2.84,3.99C2.42,4.34,2.33,4.93,2.58,5.38
		C3.24,4.59,4.01,3.93,4.86,3.39z"/>
</svg>
