<?xml version="1.0" encoding="utf-8"?>
<!-- Generator: Adobe Illustrator 17.0.0, SVG Export Plug-In . SVG Version: 6.00 Build 0)  -->
<svg version="1.2" baseProfile="tiny" id="Слой_1"
	 xmlns="http://www.w3.org/2000/svg" xmlns:xlink="http://www.w3.org/1999/xlink" x="0px" y="0px" width="20px" height="20px"
	 viewBox="0 0 20 20" xml:space="preserve">
<path d="M2.59,15.15c0.29,0.29,0.29,0.76,0,1.05l-0.65,0.65C1.79,17,1.61,17.07,1.41,17.07c0,0,0,0,0,0c0,0,0,0,0,0
	c-0.24,0-0.45-0.11-0.58-0.28l-0.6-0.6c-0.29-0.29-0.29-0.76,0-1.05c0.12-0.12,0.28-0.19,0.44-0.21V2.23
	C0.5,2.22,0.34,2.14,0.22,2.02c-0.29-0.29-0.29-0.76,0-1.05l0.65-0.65C1.01,0.17,1.21,0.1,1.4,0.1c0,0,0,0,0,0
	c0.24,0,0.45,0.11,0.58,0.28l0.6,0.6c0.29,0.29,0.29,0.76,0,1.05C2.46,2.16,2.3,2.23,2.14,2.25v12.69
	C2.31,14.96,2.46,15.03,2.59,15.15z M20,18.49c0-0.2-0.08-0.39-0.22-0.52l-0.65-0.65c-0.29-0.29-0.76-0.29-1.05,0
	c-0.12,0.12-0.19,0.28-0.21,0.44H5.18c-0.02-0.16-0.09-0.32-0.21-0.44c-0.29-0.29-0.76-0.29-1.05,0l-0.6,0.6
	c-0.17,0.14-0.28,0.35-0.28,0.58c0,0,0,0,0,0c0,0,0,0,0,0c0,0.2,0.08,0.39,0.22,0.52l0.65,0.65c0.14,0.14,0.33,0.22,0.52,0.22
	s0.38-0.07,0.52-0.22c0.12-0.12,0.19-0.28,0.21-0.44h12.69c0.02,0.16,0.09,0.32,0.21,0.44c0.14,0.14,0.33,0.22,0.52,0.22
	s0.38-0.07,0.52-0.22l0.6-0.6C19.89,18.94,20,18.73,20,18.49C20,18.49,20,18.49,20,18.49C20,18.49,20,18.49,20,18.49z M19.26,6.36
	h-5.22V0.84c0-0.41-0.33-0.74-0.74-0.74H4.44C4.03,0.1,3.7,0.43,3.7,0.84v14.62c0,0.41,0.33,0.74,0.74,0.74h14.82
	c0.41,0,0.74-0.33,0.74-0.74V7.1C20,6.69,19.67,6.36,19.26,6.36z"/>
</svg>
