<svg
	 xmlns="http://www.w3.org/2000/svg" width="24px" height="25px"
	 viewBox="0 0 24 25">
	<path d="M14.91,6.83c0.03-0.04,0.19-0.16,0.79-0.16l1.98,0c0.64,0,1.17-0.52,1.17-1.17V2.05c0-0.64-0.52-1.17-1.16-1.17l-2.94,0
		c-1.81,0-3.35,0.6-4.46,1.73C9.18,3.73,8.6,5.3,8.6,7.15v1.86H6.36c-0.64,0-1.17,0.52-1.17,1.17v3.72c0,0.64,0.52,1.17,1.17,1.17
		H8.6v8.69c0,0.64,0.52,1.17,1.17,1.17h3.85c0.64,0,1.17-0.52,1.17-1.17v-8.69h2.75c0.64,0,1.17-0.52,1.17-1.17l0-3.72
		c0-0.42-0.23-0.81-0.6-1.02c-0.17-0.1-0.37-0.15-0.58-0.15h-2.74V7.54C14.79,7.06,14.85,6.89,14.91,6.83z"/>
</svg>
