<svg
	 xmlns="http://www.w3.org/2000/svg" width="24px" height="25px"
	 viewBox="0 0 24 25">
	<path d="M23.66,5.33c-0.09-0.09-0.2-0.17-0.33-0.22c0.08-0.17,0.15-0.35,0.22-0.53c0.17-0.44,0.08-0.89-0.24-1.21
		c-0.33-0.33-0.84-0.41-1.25-0.22c-0.88,0.38-1.74,0.74-2.44,0.97c-0.82-0.44-2.19-1.07-3.29-1.07h-0.01
		c-1.51,0.02-2.92,0.64-3.97,1.75c-0.89,0.93-1.44,2.12-1.59,3.39C7.45,7.47,5.53,6.4,3.39,4.16L3.12,3.89
		C2.93,3.7,2.66,3.61,2.4,3.65C2.14,3.7,1.91,3.86,1.79,4.1L1.64,4.4C1,5.63,0.8,6.9,1.04,8.16c0.09,0.46,0.24,0.91,0.44,1.35
		c-0.19,0-0.38,0.06-0.55,0.16c-0.42,0.22-0.64,0.75-0.54,1.25l0.01,0.03l0.01,0.03c0.3,1,0.83,1.95,1.55,2.78
		c-0.12,0.04-0.24,0.1-0.34,0.17c-0.42,0.31-0.57,0.83-0.39,1.31c0.54,1.51,1.44,2.56,2.74,3.16c-0.81,0.24-1.71,0.36-2.73,0.38
		c-0.5,0-0.96,0.32-1.14,0.79l-0.01,0.04c-0.15,0.46-0.04,0.94,0.32,1.3l0.03,0.03l0.03,0.02c1.51,1.22,4.68,1.92,8.69,1.92
		c7.06,0,12.83-6.18,12.97-13.83c0.86-0.56,1.51-1.45,1.85-2.54l0.01-0.04C24.07,6.06,23.95,5.62,23.66,5.33z"/>
</svg>
